# xmcd CD database file
#
# Track frame offsets:
#	150
#	16837
#	32502
#
# Disc length: 758 seconds
#
# Revision: 3
# Processed by: cddbd v1.5.2PL0 Copyright (c) Steve Scherf et al.
# Submitted via: CDex 1.51
#
DISCID=1402f403
DTITLE=Big Country - Fragile thing (limited edition)
DYEAR=1999
DGENRE=Rock
TTITLE0=fragile thing
TTITLE1=loserville
TTITLE2=dust on the road
EXTD=YEAR: 1999
EXTT0=
EXTT1=
EXTT2=
PLAYORDER=
